<svg class="border shadow-md dark:border-slate-700" viewBox="0 0 1108.8 554.4" xmlns="http://www.w3.org/2000/svg" preserveAspectRatio="none" style="width: 1108.8px; height: 554.4px;"><rect class="bg" id="bg" x="0" y="0" width="1108.8" height="554.4" fill="#ffffff"/><g transform="rotate(0 554.4 277.2)"><path d="M -654.40 -25.44 S -337.20 -53.16&#10;            0.00 -25.44 317.20 -69.44&#10;            654.40 -25.44 969.80 -53.16&#10;            1308.80 -25.44 1562.20 -53.16&#10;            1963.20 -25.44 h 110 V 754.4 H -654.40 Z" fill="#FF9D1C" id="-1"/><path d="M -654.40 30.00 S -526.00 -9.00&#10;            0.00 30.00 317.20 -8.00&#10;            654.40 30.00 971.60 2.28&#10;            1308.80 30.00 1626.00 0.00&#10;            1963.20 30.00 h 110 V 754.4 H -654.40 Z" fill="#f3931b" id="0"/><path id="1" d="M -654.40 85.44 S -337.20 57.72&#10;            0.00 85.44 56.40 57.72&#10;            654.40 85.44 971.60 57.72&#10;            1308.80 85.44 1434.20 57.72&#10;            1963.20 85.44 h 110 V 754.4 H -654.40 Z" fill="#e7891a"/><path id="2" d="M -654.40 140.88 S -337.20 113.16&#10;            0.00 140.88 189.40 113.16&#10;            654.40 140.88 971.60 113.16&#10;            1308.80 140.88 1626.00 113.16&#10;            1963.20 140.88 h 110 V 754.4 H -654.40 Z" fill="#db7f19"/><path id="3" d="M -654.40 196.32 S -482.00 168.60&#10;            0.00 196.32 317.20 168.60&#10;            654.40 196.32 849.80 168.60&#10;            1308.80 196.32 1626.00 157.32&#10;            1963.20 196.32 h 110 V 754.4 H -654.40 Z" fill="#cf7518"/><path id="4" d="M -654.40 251.76 S -337.20 221.76&#10;            0.00 251.76 317.20 224.04&#10;            654.40 251.76 971.60 211.76&#10;            1308.80 251.76 1626.00 217.76&#10;            1963.20 251.76 h 110 V 754.4 H -654.40 Z" fill="#c36b17"/><path id="5" d="M -654.40 307.20 S -630.00 279.48&#10;            0.00 307.20 317.20 262.20&#10;            654.40 307.20 947.80 263.20&#10;            1308.80 307.20 1626.00 254.20&#10;            1963.20 307.20 h 110 V 754.4 H -654.40 Z" fill="#b76116"/><path id="6" d="M -654.40 362.64 S -337.20 309.64&#10;            0.00 362.64 317.20 308.64&#10;            654.40 362.64 971.60 316.64&#10;            1308.80 362.64 1626.00 308.64&#10;            1963.20 362.64 h 110 V 754.4 H -654.40 Z" fill="#ab5715"/><path id="7" d="M -654.40 418.08 S -651.00 376.08&#10;            0.00 418.08 317.20 390.36&#10;            654.40 418.08 971.60 390.36&#10;            1308.80 418.08 1626.00 390.36&#10;            1963.20 418.08 h 110 V 754.4 H -654.40 Z" fill="#9f4d14"/><path id="8" d="M -654.40 473.52 S -511.00 445.80&#10;            0.00 473.52 317.20 424.52&#10;            654.40 473.52 971.60 420.52&#10;            1308.80 473.52 1626.00 422.52&#10;            1963.20 473.52 h 110 V 754.4 H -654.40 Z" fill="#934313"/><path id="9" d="M -654.40 528.96 S -337.20 485.96&#10;            0.00 528.96 286.40 501.24&#10;            654.40 528.96 971.60 501.24&#10;            1308.80 528.96 1479.20 479.96&#10;            1963.20 528.96 h 110 V 754.4 H -654.40 Z" fill="#873912"/></g></svg>